<?xml version="1.0" encoding="iso-8859-1"?>
<!-- Generator: Adobe Illustrator 19.0.0, SVG Export Plug-In . SVG Version: 6.00 Build 0)  -->
<svg version="1.1" id="Capa_1" xmlns="http://www.w3.org/2000/svg" xmlns:xlink="http://www.w3.org/1999/xlink" x="0px" y="0px"
	 viewBox="0 0 197.973 197.973" style="enable-background:new 0 0 197.973 197.973;" xml:space="preserve">
<path style="fill:#FFFFFF;" d="M85.333,98.987H27.307V46.08c0-16.024,12.989-29.013,29.013-29.013l0,0
	c16.024,0,29.013,12.989,29.013,29.013v40.424"/>
<path style="fill:#602F75;" d="M85.333,102.4h-61.44V46.08c0-17.881,14.546-32.427,32.427-32.427S88.747,28.199,88.747,46.08v40.426
	H81.92V46.08c0-14.116-11.484-25.6-25.6-25.6s-25.6,11.484-25.6,25.6v49.493h54.613V102.4z"/>
<path style="fill:#FFFFFF;" d="M85.333,98.987H27.307v52.907c0,16.024,12.989,29.013,29.013,29.013l0,0
	c16.024,0,29.013-12.989,29.013-29.013V98.987z"/>
<path style="fill:#602F75;" d="M56.32,184.32c-17.881,0-32.427-14.546-32.427-32.427v-56.32h64.853v56.32
	C88.747,169.774,74.201,184.32,56.32,184.32z M30.72,102.4v49.493c0,14.116,11.484,25.6,25.6,25.6s25.6-11.484,25.6-25.6V102.4
	H30.72z"/>
<path style="fill:#EA3457;" d="M75.093,102.4H37.547v50.456c0,9.836,7.974,17.811,17.811,17.811h1.927
	c9.836,0,17.811-7.974,17.811-17.811V102.4H75.093z"/>
<path style="fill:#FFE600;" d="M85.091,122.638c-13.329,13.329-13.329,34.942,0,48.271c13.329,13.329,34.942,13.329,48.271,0
	L85.091,122.638z"/>
<path style="fill:#602F75;" d="M109.227,184.303c-9.615,0-19.231-3.661-26.551-10.981c-14.638-14.64-14.638-38.46,0-53.098
	l2.413-2.415l53.1,53.1l-2.413,2.413C128.457,180.642,118.842,184.303,109.227,184.303z M85.224,127.599
	c-9.639,12.051-8.88,29.735,2.28,40.897c11.163,11.163,28.848,11.923,40.9,2.28L85.224,127.599z"/>
<polygon style="fill:#00E7FF;" points="151.893,76.8 137.114,102.4 166.673,102.4 "/>
<path style="fill:#FFFFFF;" d="M85.091,122.638c13.329-13.329,34.942-13.329,48.271,0s13.329,34.942,0,48.271L85.091,122.638z"/>
<g>
	<path style="fill:#602F75;" d="M133.364,175.737l-53.1-53.1l2.413-2.413c14.64-14.64,38.46-14.64,53.1,0
		c14.638,14.64,14.638,38.46,0,53.098L133.364,175.737z M90.051,122.771l43.18,43.177c9.639-12.051,8.88-29.735-2.28-40.897
		C119.788,113.888,102.103,113.13,90.051,122.771z"/>
	<rect y="177.493" style="fill:#602F75;" width="197.973" height="6.827"/>
</g>
<path style="fill:#FFFFFF;" d="M54.031,30.732c-7.27,0.305-13.071,6.296-13.071,13.641"/>
<path style="fill:#602F75;" d="M44.373,44.373h-6.827c0-9.177,7.178-16.667,16.341-17.051l0.287,6.82
	C48.678,34.374,44.373,38.868,44.373,44.373z"/>
<g>
</g>
<g>
</g>
<g>
</g>
<g>
</g>
<g>
</g>
<g>
</g>
<g>
</g>
<g>
</g>
<g>
</g>
<g>
</g>
<g>
</g>
<g>
</g>
<g>
</g>
<g>
</g>
<g>
</g>
</svg>
